<svg width="48" height="48" viewBox="0 0 48 48" fill="none" xmlns="http://www.w3.org/2000/svg">
<path d="M22.5508 0H25.5446C26.3446 0.10375 27.1496 0.17875 27.9447 0.315C32.4922 1.09 34.6523 1.25607 35.9162 2.17116C42.4298 4.34232 46.66 14.3838 47.6325 19.865C47.7875 20.7375 47.8787 21.6212 48 22.5V25.5C47.9737 25.62 47.9312 25.74 47.9225 25.8612C47.9137 25.9825 47.8586 29.3107 46.773 32.5674C42.9704 38.8074 35.3585 46.275 28.1709 47.6325C27.3034 47.7962 26.4196 47.88 25.5434 48H22.5496C22.3983 47.9712 22.2483 47.9375 22.0971 47.915C21.0958 47.7688 22.7897 47.9793 21.8034 47.7656C21.1894 47.6325 20.7186 48.8511 12.0338 45.5944C4.43369 40.1665 -0.764099 32.0062 0.0921649 25.5C0.780926 20.2575 1.82356 12.4584 5.51987 8.68465C9.10743 5.0234 14.8707 1.26 19.922 0.36875C20.7933 0.215 21.6733 0.12125 22.5508 0ZM24.0471 10.3437C21.3808 10.3437 18.7158 10.3388 16.0495 10.3488C15.5845 10.35 15.1095 10.3725 14.6557 10.4663C12.0807 11.0013 10.4244 13.1225 10.4219 15.8838C10.4156 21.2888 10.4169 26.6925 10.4244 32.0975C10.4244 32.5325 10.4494 32.9762 10.5369 33.4012C11.0594 35.9487 13.1844 37.6512 15.8432 37.655C21.2683 37.6612 26.6934 37.6575 32.1185 37.6563C35.411 37.6563 37.6748 35.3937 37.6773 32.095C37.6811 26.69 37.6811 21.2862 37.6736 15.8812C37.6736 15.4462 37.6448 15.0025 37.5548 14.5787C37.0136 12.0112 34.9248 10.3612 32.186 10.3462C29.4734 10.3312 26.7596 10.3437 24.0471 10.3437Z" fill="#F6F5F3"/>
<path d="M30.9991 21.2107C32.0678 24.5982 31.4516 27.5394 28.7078 29.7844C26.2603 31.7869 23.4302 32.1169 20.6614 30.6019C16.9026 28.5457 15.9126 25.2457 17.0651 21.2169H13.11C13.1013 21.3907 13.0875 21.5432 13.0875 21.6944C13.0875 25.1769 13.085 28.6607 13.0875 32.1432C13.0888 33.9169 14.1401 34.9769 15.8988 34.9782C21.3239 34.9807 26.7478 34.9794 32.1729 34.9782C33.9616 34.9782 35.0066 33.9232 35.0079 32.1194C35.0104 28.6519 35.0079 25.1844 35.0079 21.7182V21.2094H30.9991V21.2107Z" fill="#F6F5F3"/>
<path d="M24.0277 28.7946C26.6828 28.8046 28.8166 26.6858 28.8341 24.0221C28.8516 21.3733 26.7153 19.2133 24.0702 19.2058C21.419 19.1983 19.2652 21.3358 19.2639 23.9796C19.2627 26.6496 21.3752 28.7846 24.0265 28.7946H24.0277Z" fill="#F6F5F3"/>
<path d="M34.4976 13.5425H29.9375V18.1H34.4976V13.5425Z" fill="#F6F5F3"/>
</svg>
