<svg width="48" height="48" viewBox="0 0 48 48" fill="none" xmlns="http://www.w3.org/2000/svg">
<path fill-rule="evenodd" clip-rule="evenodd" d="M13.425 9.7125C11.2875 9.7125 9.9 11.1125 9.9 12.95C9.9 14.75 11.25 16.1875 13.3375 16.1875H13.375C15.55 16.1875 16.9 14.75 16.9 12.95C16.8625 11.1125 15.55 9.7125 13.425 9.7125ZM38.9625 37.4875V26.7375C38.9625 20.975 35.8875 18.3 31.7875 18.3C28.4875 18.3 27 20.1125 26.175 21.4V18.75H19.95C20.0375 20.5125 19.95 37.4875 19.95 37.4875H26.175V27.025C26.175 26.4625 26.2125 25.9 26.375 25.5C26.825 24.375 27.85 23.225 29.575 23.225C31.825 23.225 32.725 24.95 32.725 27.4625V37.4875H38.9625ZM16.5 37.4875V18.75H10.2625V37.4875H16.5ZM24 0C37.25 0 48 10.75 48 24C48 37.25 39.421 48 26.171 48C12.921 48 0 37.25 0 24C0 10.75 5.42741 0 24 0Z" fill="#F6F5F3"/>
</svg>
