<svg width="48" height="49" viewBox="0 0 48 49" fill="none" xmlns="http://www.w3.org/2000/svg">
<path fill-rule="evenodd" clip-rule="evenodd" d="M46.302 13.8539C46.7088 14.8547 46.8741 15.9537 47.6316 20.0091C47.7431 20.6031 47.8178 21.2037 47.8925 21.8046C47.9271 22.0828 47.9617 22.361 48 22.6387V25.6322C47.9879 25.7292 47.9754 25.8259 47.9629 25.9226C47.9358 26.1329 47.9087 26.3428 47.8856 26.5537C47.3709 31.29 45.6516 35.5398 42.6216 39.2238C38.8538 43.8057 33.1725 46.9433 28.1794 47.7132C23.1863 48.4832 25.5 48.0836 25.5 48.0836H22.5C22.311 48.0604 22.1219 48.0382 21.9328 48.0161C21.5357 47.9695 21.1388 47.923 20.7431 47.8666C20.2528 47.797 19.7427 47.7409 19.2141 47.6828C14.9701 47.216 9.52616 46.6174 3.42857 37.8201C0.690542 31.5929 0.516218 29.7195 0.426333 28.7535C0.410496 28.5833 0.39728 28.4413 0.373125 28.3086C0.263237 27.7049 0.186874 27.0955 0.110508 26.4862C0.0748139 26.2013 0.0391191 25.9165 0 25.6322V22.6387C0.0207808 22.4657 0.0406973 22.2925 0.0606155 22.1194C0.106294 21.7222 0.151982 21.325 0.208125 20.9296C0.651278 17.7992 0.746935 17.6502 1.19439 16.953C1.42849 16.5882 1.75889 16.0735 2.28571 14.9032C6.85714 4.74882 14.3559 1.5147 19.9116 0.54835C20.4992 0.44645 21.0917 0.370455 21.684 0.294496C21.9562 0.259579 22.2284 0.22467 22.5 0.187256H25.5C25.5382 0.1956 25.5764 0.205464 25.6145 0.215334C25.6961 0.236447 25.7779 0.25759 25.8609 0.263965C29.5978 0.542737 41.1429 3.60843 44.5714 10.4508C45.5383 12.3804 45.9908 13.0885 46.302 13.8539ZM35.0547 11.8516C35.23 11.7939 35.4054 11.7939 35.5808 11.9093L35.5814 11.909C35.7568 12.0243 35.8737 12.1974 35.8737 12.3705V18.4855C35.8737 18.774 35.6983 19.0048 35.4061 19.0624C34.0032 19.2932 32.6587 19.1778 31.3727 18.8894V30.0237C31.3727 30.0814 31.3727 30.1968 31.3143 30.2545C30.9048 35.2731 26.5792 39.196 21.4352 39.196C15.9405 39.196 11.498 34.8116 11.498 29.3888C11.498 24.0814 15.6479 19.8124 21.0257 19.5816H21.1426C21.4933 19.5816 21.7271 19.8124 21.7271 20.1585V26.8505C21.7271 27.1389 21.4933 27.3697 21.201 27.4274C20.1489 27.5428 19.389 28.3504 19.389 29.3888C19.389 30.4849 20.3242 31.408 21.4349 31.408C22.487 31.408 23.3054 30.658 23.4223 29.6196V29.5042V9.02483C23.4223 8.67869 23.6561 8.44793 24.0068 8.44793H29.9692C30.1445 8.44793 30.2614 8.50562 30.3783 8.621C30.4953 8.73638 30.5537 8.85176 30.5537 9.02483C30.5537 9.65941 30.7875 10.3517 31.1967 10.8709C32.0735 12.0247 33.5933 12.4862 35.0547 11.8516Z" fill="#F6F5F3"/>
</svg>
